<?xml version="1.0" encoding="UTF-8" standalone="no"?>
<svg
   id="Layer_1"
   version="1.1"
   viewBox="0 0 551.14198 234.20001"
   sodipodi:docname="logo.svg"
   width="551.14197"
   height="234.20001"
   inkscape:version="1.4.3 (0d15f75042, 2025-12-25)"
   xmlns:inkscape="http://www.inkscape.org/namespaces/inkscape"
   xmlns:sodipodi="http://sodipodi.sourceforge.net/DTD/sodipodi-0.dtd"
   xmlns="http://www.w3.org/2000/svg"
   xmlns:svg="http://www.w3.org/2000/svg">
  <sodipodi:namedview
     id="namedview24"
     pagecolor="#ffffff"
     bordercolor="#111111"
     borderopacity="1"
     inkscape:showpageshadow="0"
     inkscape:pageopacity="0"
     inkscape:pagecheckerboard="1"
     inkscape:deskcolor="#d1d1d1"
     inkscape:zoom="0.95023159"
     inkscape:cx="275.72226"
     inkscape:cy="116.81363"
     inkscape:window-width="1920"
     inkscape:window-height="1011"
     inkscape:window-x="0"
     inkscape:window-y="0"
     inkscape:window-maximized="1"
     inkscape:current-layer="Layer_1" />
  <!-- Generator: Adobe Illustrator 30.1.0, SVG Export Plug-In . SVG Version: 2.1.1 Build 136)  -->
  <defs
     id="defs1">
    <style
       id="style1">
      .st0 {
        fill: none;
        stroke: #fff;
        stroke-miterlimit: 10;
        stroke-width: 5px;
      }
    </style>
  </defs>
  <polyline
     class="st0"
     points="61.3 392.7 53.2 423.4 25 530.7 74.7 530.7 85.7 479.5 146.2 479.5 157 530.7 206.6 530.7 143.2 310.2 87.8 310.2 75.4 369.5"
     id="polyline1"
     transform="translate(-21.758066,-303.70001)" />
  <polyline
     class="st0"
     points="115.8 357.7 95.9 435 135.8 435"
     id="polyline2"
     transform="translate(-21.758066,-303.70001)" />
  <path
     class="st0"
     d="m 251.24193,6.3999878 35.7,-0.7 c 0,0 29.5,2 46.9,28.9000002 54.2,84.000002 0,165.800002 0,165.800002 -13.6,27.4 -46.9,27.3 -46.9,27.3 h -55.4"
     id="path2" />
  <polyline
     class="st0"
     points="220 366.7 220 393.1 220 531.4"
     id="polyline3"
     transform="translate(-21.758066,-303.70001)" />
  <polyline
     class="st0"
     points="517.6 378.8 422.9 378.8 442.5 310.2 497.8 310.2 515.6 371.3"
     id="polyline4"
     transform="translate(-21.758066,-303.70001)" />
  <polyline
     class="st0"
     points="534.8 438.2 561.3 530.7 511.6 530.7 500.8 479.5 440.3 479.5 429.3 530.7 379.7 530.7 407.5 432.8 533.1 432.8 541.6 424.3 560.5 424.3"
     id="polyline5"
     transform="translate(-21.758066,-303.70001)" />
  <path
     class="st0"
     d="M 394.24193,99.499988"
     id="path5" />
  <polyline
     class="st0"
     points="53.2 423.4 43.2 408 53.2 366.7"
     id="polyline6"
     transform="translate(-21.758066,-303.70001)" />
  <polyline
     class="st0"
     points="48.2 530.7 74.8 435 95.9 435"
     id="polyline7"
     transform="translate(-21.758066,-303.70001)" />
  <circle
     class="st0"
     cx="52.841934"
     cy="69.799988"
     r="4"
     id="circle7" />
  <circle
     class="st0"
     cx="95.041939"
     cy="50.099976"
     r="4"
     id="circle8" />
  <circle
     class="st0"
     cx="40.541935"
     cy="85.5"
     r="4"
     id="circle9" />
  <circle
     class="st0"
     cx="32.641937"
     cy="59.099976"
     r="4"
     id="circle10" />
  <circle
     class="st0"
     cx="118.04194"
     cy="131.29999"
     r="4"
     id="circle11" />
  <path
     class="st0"
     d="m 216.04193,81.099988 -17.8,8.4 z"
     id="path11" />
  <line
     class="st0"
     x1="215.74193"
     y1="81.5"
     x2="215.74193"
     y2="11.399994"
     id="line11" />
  <polyline
     class="st0"
     points="237.5 531.4 237.5 460.5 237.5 412.2 253.3 403.4 253.3 317.9"
     id="polyline11"
     transform="translate(-21.758066,-303.70001)" />
  <path
     class="st0"
     d="m 231.24193,150.09999 -15.5,6.7 z"
     id="path12" />
  <line
     class="st0"
     x1="231.54193"
     y1="129.09998"
     x2="230.94193"
     y2="150.5"
     id="line12" />
  <path
     class="st0"
     d="m 261.84193,28.999988 28.8,-0.6 c 0,0 19.7,1.5 31.4,22.7 36.3,66.000002 0,130.500002 0,130.500002 -9.1,21.6 -31.4,21.5 -31.4,21.5 h -37.1"
     id="path13" />
  <circle
     class="st0"
     cx="247.34193"
     cy="6.5"
     r="4"
     id="circle13" />
  <circle
     class="st0"
     cx="231.54193"
     cy="10.5"
     r="4"
     id="circle14" />
  <circle
     class="st0"
     cx="215.74193"
     cy="7.5"
     r="4"
     id="circle15" />
  <circle
     class="st0"
     cx="198.24193"
     cy="59.299988"
     r="4"
     id="circle16" />
  <circle
     class="st0"
     cx="231.54193"
     cy="125"
     r="4"
     id="circle17" />
  <circle
     class="st0"
     cx="227.54193"
     cy="227.70001"
     r="4"
     id="circle18" />
  <line
     class="st0"
     x1="357.24194"
     y1="129.09998"
     x2="385.74194"
     y2="129.09998"
     id="line18" />
  <line
     class="st0"
     x1="352.34195"
     y1="75.099976"
     x2="401.14194"
     y2="75.099976"
     id="line19" />
  <polyline
     class="st0"
     points="378.2 397.8 537.9 396.4 550 384.5 562.5 384.5"
     id="polyline19"
     transform="translate(-21.758066,-303.70001)" />
  <line
     class="st0"
     x1="357.84195"
     y1="112.39999"
     x2="486.74194"
     y2="112.39999"
     id="line20" />
  <polyline
     class="st0"
     points="533.1 432.8 545 439.9 553.1 439.9"
     id="polyline20"
     transform="translate(-21.758066,-303.70001)" />
  <circle
     class="st0"
     cx="499.84192"
     cy="75.099976"
     r="4"
     id="circle20" />
  <circle
     class="st0"
     cx="490.74194"
     cy="112.39999"
     r="4"
     id="circle21" />
  <circle
     class="st0"
     cx="544.64197"
     cy="80.799988"
     r="4"
     id="circle22" />
  <circle
     class="st0"
     cx="542.44196"
     cy="120.59998"
     r="4"
     id="circle23" />
  <circle
     class="st0"
     cx="535.44196"
     cy="136.19998"
     r="4"
     id="circle24" />
</svg>
